<svg version="1.1" id="Layer_1" xmlns="http://www.w3.org/2000/svg" xmlns:xlink="http://www.w3.org/1999/xlink" x="0px" y="0px"
	 width="100%" viewBox="0 0 496 496" enable-background="new 0 0 496 496" xml:space="preserve">
<path fill="#000000" opacity="1.000000" stroke="none" 
	d="
M308.327576,221.848206 
	C308.674194,229.804779 309.003387,237.281174 309.370392,244.755722 
	C309.537567,248.160538 310.961945,250.466644 314.716522,250.730042 
	C315.996216,250.819809 317.428406,250.651459 318.845490,252.764420 
	C310.589355,254.026062 302.800171,253.031540 294.294891,253.314362 
	C295.142212,252.065369 295.370789,251.387421 295.651154,251.365265 
	C301.782928,250.880661 303.303589,247.172546 302.648041,241.724091 
	C300.981750,227.875031 302.255920,213.859436 300.215027,199.187561 
	C292.106628,217.656174 284.280975,235.480789 276.566467,253.052231 
	C273.526611,252.713699 273.138275,250.895966 272.472504,249.460083 
	C267.290466,238.284042 262.248413,227.042236 256.974731,215.910019 
	C254.926834,211.587189 255.794113,208.278900 260.020325,204.815277 
	C265.683594,216.815155 271.218994,228.544098 276.822235,240.416702 
	C279.238953,238.825943 279.532379,236.893829 280.246216,235.274750 
	C286.492889,221.106201 292.951569,207.020248 298.726776,192.660202 
	C300.995544,187.018921 304.194611,184.759506 310.008484,185.643158 
	C312.170288,185.971725 314.509521,185.224182 316.913025,186.490616 
	C316.289734,187.202988 316.056396,187.731384 315.690796,187.849136 
	C307.246552,190.568863 306.999664,190.572113 307.418488,199.434937 
	C307.763947,206.744629 308.501709,214.035110 308.327576,221.848206 
z"/>
<path fill="#000000" opacity="1.000000" stroke="none" 
	d="
M224.691574,171.190033 
	C222.286987,171.417511 221.554611,172.853943 220.912521,174.469818 
	C219.009720,179.258362 216.988785,184.000702 215.133377,188.807175 
	C212.613632,195.334610 213.954941,197.639572 220.763092,198.756073 
	C221.887665,198.940491 223.134598,198.786957 224.307068,200.682785 
	C215.665817,200.682785 207.446609,200.682785 199.227417,200.682785 
	C210.759262,197.042297 211.693466,186.012817 215.564560,177.257462 
	C221.679504,163.427124 227.307800,149.381729 233.158112,135.434097 
	C233.597015,134.387741 233.877396,133.181076 235.245682,132.681381 
	C237.538849,132.848251 237.790024,134.920822 238.522812,136.478683 
	C243.970474,148.060135 249.195282,159.751617 254.900024,171.204315 
	C257.090118,175.601105 255.384995,178.324951 252.945587,181.251144 
	C250.980179,180.761505 250.482819,179.371964 250.192917,178.164139 
	C248.749176,172.148987 244.807114,170.578918 239.076477,171.073471 
	C234.454605,171.472336 229.770630,171.151810 224.691574,171.190033 
M241.665985,159.755112 
	C238.967300,154.951492 237.428360,149.506332 233.591064,144.117340 
	C230.306244,152.066483 227.426117,159.036331 224.228958,166.773361 
	C231.488403,168.207642 237.834106,167.715332 244.922958,167.417328 
	C243.629654,164.371368 242.795151,162.405960 241.665985,159.755112 
z"/>
<path fill="#000000" opacity="1.000000" stroke="none" 
	d="
M282.418579,151.591492 
	C283.446136,150.276474 284.185272,149.038040 285.847229,149.864792 
	C286.008423,154.353271 222.032181,244.948593 216.962402,244.988449 
	C238.715057,213.948975 260.467712,182.909500 282.418579,151.591492 
z"/>
<path fill="#000000" opacity="1.000000" stroke="none" 
	d="
M297.234680,302.893646 
	C299.790466,305.191589 301.076324,316.109924 299.320526,318.170532 
	C297.948822,319.780334 296.596252,319.344971 296.042542,317.460052 
	C295.632507,316.064301 295.747284,314.514435 295.608917,312.792450 
	C293.196198,313.796509 293.743805,317.890228 290.861603,317.671783 
	C287.993927,317.454498 288.312561,313.663910 286.020447,312.322449 
	C285.205780,314.437103 286.141693,316.940643 284.556549,318.793854 
	C282.752686,319.378784 281.878754,318.438568 281.837433,316.916870 
	C281.733795,313.104034 281.792480,309.285065 281.865540,305.470093 
	C281.889191,304.235260 282.435333,303.217743 283.823029,302.960510 
	C285.129822,302.718231 286.137085,303.255402 286.767883,304.340820 
	C288.004883,306.469299 289.151398,308.650360 290.409485,310.944916 
	C293.799866,309.008942 293.215546,304.262604 297.234680,302.893646 
z"/>
<path fill="#000000" opacity="1.000000" stroke="none" 
	d="
M170.539139,315.252686 
	C167.964401,313.738068 168.593597,315.961212 168.339951,316.909698 
	C168.016907,318.117737 167.749039,319.232025 166.207184,319.121216 
	C164.570633,319.003632 164.582291,317.726349 164.588821,316.549194 
	C164.608215,313.058075 164.630737,309.566376 164.716110,306.076477 
	C164.747955,304.774506 164.669571,303.294220 166.484085,302.988770 
	C168.043991,302.726196 168.911453,303.671814 169.713745,304.829590 
	C171.007599,306.696777 171.364471,309.178772 173.612457,310.907288 
	C174.862198,308.693176 175.975876,306.687775 177.122162,304.701111 
	C177.837891,303.460632 178.825287,302.664154 180.377777,302.960693 
	C182.113724,303.292297 182.241272,304.671783 182.261368,306.015747 
	C182.311081,309.339813 182.329025,312.665833 182.266068,315.989288 
	C182.241379,317.292511 182.212738,318.944427 180.362259,318.898895 
	C178.439941,318.851562 178.753952,317.129608 178.680557,315.869415 
	C178.605072,314.573273 178.663803,313.269348 178.663803,312.109833 
	C175.211548,311.792572 177.010010,322.503784 170.539139,315.252686 
z"/>
<path fill="#000000" opacity="1.000000" stroke="none" 
	d="
M121.811020,305.483887 
	C123.310249,301.541290 125.148918,302.662842 127.039223,304.624023 
	C128.689911,306.336670 129.449051,308.888855 132.100494,310.283569 
	C132.346283,309.287903 132.487930,308.691040 132.641251,308.097198 
	C133.116333,306.256958 131.629822,302.972137 135.040527,303.204102 
	C137.657776,303.382080 136.816116,306.302094 136.943100,308.152039 
	C137.079102,310.133179 137.100327,312.143127 136.924698,314.118561 
	C136.761292,315.956360 137.570572,318.439484 134.896744,319.122040 
	C132.699493,319.682953 131.757324,317.750061 130.637390,316.333466 
	C129.540619,314.946167 128.406860,313.588074 127.234291,312.149628 
	C126.720383,312.749298 126.440544,312.948914 126.337257,313.216614 
	C125.578247,315.184052 127.194130,318.926270 123.976028,318.867798 
	C120.277275,318.800568 122.028709,315.055603 121.773750,312.883698 
	C121.505104,310.595123 121.748024,308.246490 121.811020,305.483887 
z"/>
<path fill="#000000" opacity="1.000000" stroke="none" 
	d="
M369.899841,318.644470 
	C370.346588,313.149323 373.185120,308.789734 375.522797,304.265900 
	C376.563904,302.251129 378.815277,302.108795 379.956512,304.094635 
	C382.557251,308.620209 384.671448,313.409912 385.995361,318.228638 
	C385.376343,318.753418 385.176056,318.974396 385.137146,318.948944 
	C380.140808,315.677002 375.143860,316.116547 369.899841,318.644470 
z"/>
<path fill="#000000" opacity="1.000000" stroke="none" 
	d="
M110.983032,318.731262 
	C109.932632,318.943085 108.796333,319.221527 108.394165,318.799805 
	C104.924576,315.161652 101.589127,315.330475 98.069702,318.715790 
	C97.602646,319.165070 96.548271,319.003754 94.726906,319.286499 
	C96.226120,313.301178 98.534698,308.312073 101.469521,303.673462 
	C102.510277,302.028503 104.699051,302.474976 105.575645,304.276794 
	C107.805756,308.860565 110.708702,313.203796 110.983032,318.731262 
z"/>
<path fill="#000000" opacity="1.000000" stroke="none" 
	d="
M254.228760,253.347870 
	C248.094650,253.373276 242.372589,253.373276 236.650528,253.373276 
	C236.336685,252.940353 236.022858,252.507446 235.709015,252.074524 
	C246.488419,249.342682 243.971741,240.901367 244.651947,233.858719 
	C244.927460,231.006210 243.957306,227.788651 247.611649,225.617798 
	C249.018723,230.509232 248.079987,235.249329 248.118729,239.903183 
	C248.161591,245.049332 247.672348,250.151443 254.874710,251.064011 
	C256.645966,251.288452 256.959625,252.766418 254.228760,253.347870 
z"/>
<path fill="#000000" opacity="1.000000" stroke="none" 
	d="
M203.060181,306.281250 
	C201.221451,306.438751 199.622849,305.991577 198.465973,307.545715 
	C199.260406,311.369629 203.476059,308.240479 204.941513,310.956055 
	C204.722336,314.962677 200.438873,312.149689 198.803787,314.289154 
	C200.105423,316.299072 202.133057,314.886108 203.690704,315.327759 
	C204.847458,315.655670 206.006912,315.954559 205.987946,317.471130 
	C205.967819,319.078339 204.747833,319.196320 203.559814,319.311401 
	C203.394638,319.327393 203.223663,319.361328 203.063171,319.336548 
	C200.088013,318.877228 195.709183,321.032104 194.409485,317.788605 
	C192.731064,313.600006 193.193741,308.609619 194.307892,304.071198 
	C194.745834,302.287231 204.453171,301.852234 205.465714,303.515228 
	C206.743835,305.614380 205.073547,306.010284 203.060181,306.281250 
z"/>
<path fill="#000000" opacity="1.000000" stroke="none" 
	d="
M223.053192,319.361816 
	C221.484390,319.206879 220.268448,319.239594 219.208969,318.848541 
	C217.808060,318.331421 216.216629,317.516968 216.866226,315.625549 
	C217.480774,313.836182 218.982605,314.488953 220.237534,314.957672 
	C221.521835,315.437317 222.773712,315.874908 223.936020,314.505768 
	C223.699738,312.569183 221.916107,312.682831 220.653732,312.176208 
	C218.381058,311.264130 217.096924,309.642517 217.307892,307.201019 
	C217.520615,304.739136 219.145462,303.287048 221.498184,302.889862 
	C223.971115,302.472443 226.540527,302.233093 228.499237,304.315491 
	C228.838211,304.675873 228.878860,305.610382 228.671555,306.123993 
	C228.339539,306.946564 227.505524,307.238312 226.591309,307.088165 
	C225.179626,306.856293 223.769363,305.835052 221.730438,307.610046 
	C224.692368,310.302643 231.735138,310.394501 229.044388,316.906677 
	C228.073730,319.255890 225.714111,319.395081 223.053192,319.361816 
z"/>
<path fill="#000000" opacity="1.000000" stroke="none" 
	d="
M245.215912,314.058594 
	C244.711838,315.223267 244.422333,316.162231 244.242050,317.121735 
	C244.039734,318.198456 243.642776,319.044495 242.383820,318.992737 
	C241.079285,318.939117 240.769775,317.934448 240.755844,316.918182 
	C240.703644,313.109192 240.699280,309.298767 240.746078,305.489716 
	C240.760529,304.314392 240.954086,303.052917 242.595306,303.147705 
	C243.852386,303.220306 244.209946,304.227417 244.234421,305.251984 
	C244.296371,307.845764 244.808334,309.779846 248.119461,309.672333 
	C251.105911,309.575409 251.646011,307.848755 251.700256,305.432159 
	C251.727325,304.225830 252.052475,302.988037 253.640366,303.160431 
	C254.830292,303.289581 255.182739,304.344055 255.194077,305.373322 
	C255.235992,309.181641 255.239944,312.991028 255.190857,316.799194 
	C255.177750,317.815826 254.847214,318.849213 253.615402,318.979675 
	C252.393875,319.109070 251.770584,318.311218 251.744125,317.188324 
	C251.629654,312.327759 248.534271,313.141693 245.215912,314.058594 
z"/>
<path fill="#000000" opacity="1.000000" stroke="none" 
	d="
M318.315704,349.127319 
	C317.316071,350.810913 317.596375,353.215637 314.704834,352.615845 
	C312.498840,352.158264 309.908630,353.115845 309.054169,349.763702 
	C308.455597,347.415497 306.596436,345.485199 306.340515,342.484772 
	C311.007996,341.003174 315.678955,342.271912 320.285614,341.733307 
	C320.885681,344.832642 319.044830,346.627136 318.315704,349.127319 
z"/>
<path fill="#000000" opacity="1.000000" stroke="none" 
	d="
M83.522583,352.628296 
	C81.195549,350.082520 79.278145,353.003937 76.882034,353.257172 
	C77.543953,349.354645 78.240807,345.822418 76.667824,342.398865 
	C81.305611,340.831512 80.979095,345.743652 83.521675,346.591461 
	C85.549576,345.493256 85.187851,341.570831 89.161446,342.147827 
	C89.161446,345.616241 89.161446,349.125671 89.161446,352.682281 
	C87.375381,354.745972 85.644157,351.201324 83.522583,352.628296 
z"/>
<path fill="#000000" opacity="1.000000" stroke="none" 
	d="
M356.149780,315.750488 
	C355.930664,317.767609 355.579834,319.360687 353.522736,318.991119 
	C351.871429,318.694519 351.844727,317.145172 351.805725,315.811005 
	C351.747559,313.823669 351.771240,311.834106 351.725983,309.846252 
	C351.699371,308.676697 351.610138,307.507019 350.469391,306.783020 
	C349.335754,306.063538 346.931335,306.320282 347.545990,304.204651 
	C348.224731,301.868286 350.655518,302.597626 352.282227,302.766113 
	C355.097687,303.057800 358.519470,301.167938 361.136902,305.037079 
	C354.838043,306.456329 356.259064,311.192200 356.149780,315.750488 
z"/>
<path fill="#000000" opacity="1.000000" stroke="none" 
	d="
M330.331024,309.163635 
	C330.273682,307.919678 330.025879,307.167664 329.236969,306.685486 
	C328.104492,305.993408 325.716705,306.633179 326.084290,304.378693 
	C326.460907,302.068878 328.687744,302.697723 330.177704,302.748444 
	C333.119446,302.848663 336.335022,301.793976 340.259857,304.756317 
	C332.737274,306.359375 334.542145,311.503265 334.257751,315.838379 
	C334.162231,317.294006 334.236206,319.115692 332.056458,318.988739 
	C330.321106,318.887634 330.165863,317.320831 330.145172,316.004517 
	C330.111450,313.855286 330.253174,311.703308 330.331024,309.163635 
z"/>
<path fill="#000000" opacity="1.000000" stroke="none" 
	d="
M362.064819,342.435760 
	C364.113647,341.522797 365.946014,341.522156 367.702942,342.032104 
	C370.724823,342.909180 372.597748,344.846344 372.250427,348.190887 
	C371.912567,351.444366 370.052307,353.248718 366.688995,353.299103 
	C365.228607,353.320984 363.767639,353.302795 362.089142,353.302795 
	C361.448273,349.548187 361.551819,346.142670 362.064819,342.435760 
M368.492126,346.127960 
	C367.885132,345.143250 366.916260,343.729004 365.989838,345.100067 
	C364.666229,347.058990 365.077789,349.228546 366.984406,350.898956 
	C368.779510,349.744659 368.713440,348.265625 368.492126,346.127960 
z"/>
<path fill="#000000" opacity="1.000000" stroke="none" 
	d="
M342.972412,345.103088 
	C345.873260,346.242218 347.833160,347.636993 346.634644,350.821472 
	C345.653931,353.427368 343.655640,354.098053 340.987915,353.546906 
	C339.183746,353.174164 338.433533,352.357391 338.611542,350.488647 
	C338.768677,348.839325 338.540680,347.150696 338.728790,345.507599 
	C338.914459,343.885590 337.322021,341.315186 339.993164,340.874847 
	C342.717316,340.425751 341.674133,343.572479 342.972412,345.103088 
z"/>
<path fill="#000000" opacity="1.000000" stroke="none" 
	d="
M271.964539,355.541809 
	C270.465240,357.805847 268.745789,359.065033 266.355072,357.966583 
	C263.962799,356.867401 264.790955,354.567017 264.860321,352.682129 
	C265.122864,345.548889 265.528839,345.206299 272.018158,346.453735 
	C270.283661,349.404053 271.774475,352.274780 271.964539,355.541809 
z"/>
<path fill="#000000" opacity="1.000000" stroke="none" 
	d="
M120.080879,350.725586 
	C120.424217,347.879333 120.907951,345.427551 120.068001,342.954742 
	C119.783424,342.116913 119.988724,341.213562 120.890945,340.878693 
	C121.432571,340.677673 122.672310,340.880280 122.672455,340.906708 
	C122.698074,345.432831 130.139282,346.975739 127.214775,352.933685 
	C124.920280,352.234314 121.682526,355.728973 120.080879,350.725586 
z"/>
<path fill="#000000" opacity="1.000000" stroke="none" 
	d="
M405.442749,319.130981 
	C403.693237,319.281006 402.361084,319.255554 401.040863,319.368988 
	C397.904724,319.638458 396.427917,318.411163 396.626404,315.106323 
	C396.815216,311.962494 396.663757,308.799500 396.726501,305.646210 
	C396.749908,304.471069 396.914062,303.126190 398.490906,303.165436 
	C399.996338,303.202911 400.204102,304.506317 400.283386,305.696381 
	C400.360596,306.854584 400.380157,308.019623 400.361572,309.180634 
	C400.307587,312.553314 399.795166,316.036224 405.039948,316.001099 
	C406.767426,315.989471 407.667145,317.428162 405.442749,319.130981 
z"/>
<path fill="#000000" opacity="1.000000" stroke="none" 
	d="
M445.296997,349.716003 
	C445.105621,353.943695 439.292084,353.772522 440.374756,359.115265 
	C436.048615,356.187469 438.055878,352.788544 437.696045,350.145813 
	C437.193665,346.456329 440.155396,344.560547 443.457886,346.072845 
	C444.864655,346.717072 445.269928,347.896271 445.296997,349.716003 
z"/>
<path fill="#000000" opacity="1.000000" stroke="none" 
	d="
M25.788948,342.576233 
	C27.976383,345.924469 29.849266,349.123291 31.677097,352.245209 
	C27.905985,355.000702 27.217712,350.590576 25.321815,350.386017 
	C22.914394,350.354889 23.169113,354.918488 19.697651,352.566559 
	C21.641884,349.247681 21.894806,344.978210 25.788948,342.576233 
z"/>
<path fill="#000000" opacity="1.000000" stroke="none" 
	d="
M146.523331,345.634552 
	C150.663605,345.162781 151.607422,347.534210 151.188309,350.485291 
	C150.418976,355.902405 146.185150,351.806030 143.809692,353.350769 
	C144.172516,350.381470 140.658630,346.573853 146.523331,345.634552 
z"/>
<path fill="#000000" opacity="1.000000" stroke="none" 
	d="
M258.538116,348.885925 
	C258.566559,350.376709 258.566559,351.526123 258.566559,352.783173 
	C256.269745,353.479218 254.040817,353.643341 251.494492,352.975372 
	C251.494492,350.846039 251.494492,348.771942 251.494492,346.414337 
	C254.216660,346.069183 257.368378,343.548004 258.538116,348.885925 
z"/>
<path fill="#000000" opacity="1.000000" stroke="none" 
	d="
M427.893555,345.780762 
	C432.237091,348.019012 433.094055,350.738251 430.437897,352.794617 
	C429.252197,353.712494 427.832825,354.264771 426.296570,353.568634 
	C424.652618,352.823792 423.694489,351.529724 423.797455,349.699188 
	C423.925598,347.421204 425.252930,346.140686 427.893555,345.780762 
z"/>
<path fill="#000000" opacity="1.000000" stroke="none" 
	d="
M148.672073,311.747681 
	C148.713821,309.162384 148.703522,307.024506 148.823517,304.893982 
	C148.870453,304.060730 149.317032,303.297394 150.290390,303.191040 
	C151.543884,303.054138 152.157257,303.890045 152.174744,304.935394 
	C152.243378,309.039093 152.224411,313.145203 152.167847,317.249451 
	C152.152832,318.338623 151.565979,319.125732 150.329346,319.079712 
	C149.100754,319.033966 148.622772,318.209778 148.603729,317.126343 
	C148.574875,315.484497 148.644409,313.840942 148.672073,311.747681 
z"/>
<path fill="#000000" opacity="1.000000" stroke="none" 
	d="
M179.365845,342.115204 
	C181.755463,341.558807 182.302139,342.576965 182.122635,344.455139 
	C181.920425,346.571167 181.730988,348.712341 182.626984,350.621887 
	C184.009979,351.782471 185.163406,349.788696 186.432678,350.569336 
	C186.558380,350.858978 186.860138,351.226440 186.773727,351.424438 
	C185.261597,354.889008 182.245102,353.284790 179.946198,353.090057 
	C177.584167,352.890045 178.360138,350.608826 178.569199,349.086761 
	C178.880005,346.824097 178.026291,344.487305 179.365845,342.115204 
z"/>
<path fill="#000000" opacity="1.000000" stroke="none" 
	d="
M315.317505,312.909515 
	C315.288605,314.533630 315.305908,315.686737 315.216827,316.831604 
	C315.137268,317.854340 314.806000,318.855194 313.588440,318.929291 
	C311.998077,319.026123 311.735596,317.804413 311.721252,316.612976 
	C311.677765,312.998230 311.676300,309.382141 311.730682,305.767639 
	C311.747711,304.636292 311.818970,303.228882 313.357819,303.189941 
	C315.220032,303.142761 315.219666,304.732056 315.267975,306.025970 
	C315.347717,308.159943 315.307220,310.298370 315.317505,312.909515 
z"/>
<path fill="#000000" opacity="1.000000" stroke="none" 
	d="
M101.573700,347.001587 
	C102.439140,349.053253 102.480576,350.834625 102.075890,352.878021 
	C100.081123,353.397583 97.772240,354.719391 96.165726,352.808502 
	C94.944237,351.355591 95.065483,348.855377 96.303085,347.216888 
	C97.579308,345.527344 99.464722,344.686401 101.573700,347.001587 
z"/>
<path fill="#000000" opacity="1.000000" stroke="none" 
	d="
M195.836365,345.649353 
	C198.056473,346.154236 199.733047,347.683777 197.928314,349.001831 
	C195.440598,350.818665 198.100677,351.570099 198.293381,352.692505 
	C195.479706,354.597290 193.007736,354.225189 191.903961,351.465363 
	C190.716827,348.497253 192.437378,346.435303 195.836365,345.649353 
z"/>
<path fill="#000000" opacity="1.000000" stroke="none" 
	d="
M208.473328,345.779388 
	C211.473846,347.678467 210.153915,350.325928 210.373581,352.746613 
	C208.206726,353.607697 206.165695,353.779938 203.788300,352.776276 
	C204.329056,349.788361 202.809235,345.775146 208.473328,345.779388 
z"/>
<path fill="#000000" opacity="1.000000" stroke="none" 
	d="
M228.972626,346.212677 
	C235.426773,345.517090 236.405792,346.827606 234.545395,353.015472 
	C232.015762,353.727325 232.825134,351.240173 231.989594,350.294952 
	C230.804901,350.891785 231.549316,353.120422 229.156815,352.974762 
	C227.521194,351.074402 226.982651,348.893005 228.972626,346.212677 
z"/>
<path fill="#000000" opacity="1.000000" stroke="none" 
	d="
M382.955627,350.977661 
	C383.796326,351.619019 384.740021,352.229431 383.760742,353.021179 
	C382.100159,354.363770 380.303864,353.960022 378.820038,352.639160 
	C377.258911,351.249481 377.073120,349.526031 378.251404,347.757141 
	C379.381927,346.059937 381.070282,345.179230 382.932709,346.009979 
	C386.441589,347.575226 383.468597,349.228607 382.955627,350.977661 
z"/>
<path fill="#000000" opacity="1.000000" stroke="none" 
	d="
M407.410034,346.109161 
	C409.473297,350.563049 408.406006,354.219696 405.517365,353.789246 
	C403.352539,353.466644 401.735291,352.124023 401.969818,349.844879 
	C402.262024,347.005188 404.046082,345.515137 407.410034,346.109161 
z"/>
<path fill="#000000" opacity="1.000000" stroke="none" 
	d="
M158.073334,352.989258 
	C155.451660,349.876221 156.124847,346.783630 159.374084,346.204651 
	C167.021439,344.841919 159.543655,351.495270 162.903793,352.592651 
	C161.207123,354.046478 159.799133,353.780975 158.073334,352.989258 
z"/>
<path fill="#000000" opacity="1.000000" stroke="none" 
	d="
M332.788544,347.617096 
	C332.098694,349.545227 330.958649,351.084503 332.302795,352.858612 
	C329.666138,354.295685 327.804474,353.862183 326.456665,351.657257 
	C325.436462,349.988312 325.953339,348.372589 327.204254,347.153809 
	C328.978607,345.425110 330.921326,345.066528 332.788544,347.617096 
z"/>
<path fill="#000000" opacity="1.000000" stroke="none" 
	d="
M109.756950,346.100220 
	C111.731674,345.402557 113.283096,345.297363 114.179848,347.103851 
	C114.288094,349.073242 112.093010,348.460876 111.691620,349.216309 
	C111.316650,351.158264 113.675247,351.298676 113.259712,352.926239 
	C111.320221,354.501373 109.415337,353.971893 108.139725,352.249298 
	C106.464447,349.987030 107.438766,347.921570 109.756950,346.100220 
z"/>
<path fill="#000000" opacity="1.000000" stroke="none" 
	d="
M414.758057,345.504333 
	C415.026093,343.576752 413.321289,340.941284 416.294830,340.867493 
	C419.032043,340.799591 418.152771,343.413940 418.221893,345.055817 
	C418.304565,347.019287 418.197876,348.993042 418.120178,350.960205 
	C418.068451,352.269043 417.491516,353.229095 416.017609,353.040649 
	C414.772766,352.881439 414.606964,351.858582 414.632874,350.814789 
	C414.673584,349.174591 414.725037,347.534637 414.758057,345.504333 
z"/>
<path fill="#000000" opacity="1.000000" stroke="none" 
	d="
M394.330139,352.717560 
	C390.408997,352.423035 390.881775,349.014191 389.307526,346.661255 
	C391.968842,345.187592 394.318146,345.708557 396.886230,346.049591 
	C397.201660,348.759979 395.724976,350.579956 394.330139,352.717560 
z"/>
<path fill="#000000" opacity="1.000000" stroke="none" 
	d="
M450.991516,348.320374 
	C452.429352,346.121490 454.094818,345.051849 456.166809,346.461365 
	C457.988403,347.700500 456.863861,348.937531 455.749176,350.100433 
	C454.759308,351.133118 457.372742,351.954041 455.781921,353.337250 
	C452.175659,354.155273 450.385742,352.756348 450.991516,348.320374 
z"/>
<path fill="#000000" opacity="1.000000" stroke="none" 
	d="
M40.456085,353.002716 
	C38.596436,353.371826 37.468433,353.070312 37.500072,351.198578 
	C37.539074,348.891052 37.595974,346.582977 37.577080,344.275696 
	C37.566719,343.011047 37.677711,341.915710 39.289570,341.869843 
	C40.782799,341.827362 41.398247,342.697144 41.261017,344.060211 
	C40.966873,346.982025 41.889477,349.966522 40.456085,353.002716 
z"/>
<path fill="#000000" opacity="1.000000" stroke="none" 
	d="
M62.081085,353.338196 
	C62.260979,354.594574 62.791298,355.683746 60.654812,356.325043 
	C58.477253,351.450226 57.107090,346.395416 57.007790,340.970581 
	C59.971542,344.501312 60.409912,348.983704 62.081085,353.338196 
z"/>
<path fill="#000000" opacity="1.000000" stroke="none" 
	d="
M244.940125,348.528870 
	C244.506638,350.414551 245.949768,353.188354 242.955063,352.964020 
	C240.711472,352.795959 241.416504,350.390381 241.394363,348.884918 
	C241.362122,346.692413 241.355118,344.417053 242.939270,342.305054 
	C245.435181,343.877655 244.429169,346.266663 244.940125,348.528870 
z"/>
<path fill="#000000" opacity="1.000000" stroke="none" 
	d="
M136.583389,343.067749 
	C137.009171,345.828461 137.238708,348.290344 137.331619,350.757416 
	C137.386932,352.225952 136.788361,353.821625 135.097687,352.883850 
	C132.888504,351.658447 133.408676,348.962860 133.717285,347.074005 
	C133.955078,345.618744 132.117004,342.057129 136.583389,343.067749 
z"/>
<path fill="#000000" opacity="1.000000" stroke="none" 
	d="
M288.166077,349.680298 
	C287.454926,346.520599 285.659302,343.938049 286.869995,340.759155 
	C289.823853,345.176697 290.662842,350.255157 291.978943,356.182892 
	C288.653168,354.520935 288.971436,352.010742 288.166077,349.680298 
z"/>
<path fill="#000000" opacity="1.000000" stroke="none" 
	d="
M221.632111,346.944275 
	C221.295166,347.995636 220.875961,348.701385 220.387909,349.355743 
	C219.453323,350.608856 220.519623,353.779144 217.547256,352.973511 
	C215.134598,352.319580 216.370682,349.791382 216.291504,348.190735 
	C216.158203,345.496307 218.388809,345.740723 220.228973,345.907837 
	C220.675430,345.948395 221.089691,346.343384 221.632111,346.944275 
z"/>
<path fill="#000000" opacity="1.000000" stroke="none" 
	d="
M464.198456,352.989868 
	C463.749420,352.231506 463.339539,351.521301 463.519653,351.025360 
	C464.094116,349.443604 461.987793,347.309448 464.422028,346.217041 
	C465.358551,345.796722 467.060699,346.551941 466.750885,347.141998 
	C465.737732,349.071777 468.222076,352.332550 464.198456,352.989868 
z"/>
</svg>