<svg xmlns="http://www.w3.org/2000/svg"  viewBox="0 0 50 50" width="50px" height="50px" baseProfile="basic"><polygon fill="#f2973d" points="16,2.483 10.002,5.946 10,5.945 10,33.66 34.001,47.516 40.001,44.052 40,16.34"/><polygon fill="#d98736" points="40,16.34 16,2.483 10,5.947 34,19.804"/><polygon fill="#b36f2d" points="34,19.804 34.001,47.516 40.001,44.052 40,16.34"/><polygon fill="#e6e6e6" points="30,35.97 31.15,31.407 29,25 23,16.917 26,25.577 26,29.041 17,15.762 21,25 14,15.185 22,31.351 19,30.774 12,23.268 19,35.392 24,38.279 28,38.279 31,42.321 31,38.856"/></svg>